<svg width="350" height="350" viewBox="0 0 350 350" fill="none" xmlns="http://www.w3.org/2000/svg">
<path d="M229.324 225.058L228.833 180.05L136.034 208.487C135.548 208.656 135.057 208.656 134.561 208.487C134.065 208.317 133.655 208.017 133.334 207.587C133.036 207.158 132.886 206.68 132.884 206.155V59.3873L88.9395 76.8177V269.126L229.324 225.058Z" fill="white"/>
<path fill-rule="evenodd" clip-rule="evenodd" d="M239.758 232.342L239.021 166.261L181.575 184.06L181.493 184.101C181.429 184.125 181.361 184.139 181.288 184.142L148.228 194.412C147.574 194.635 146.906 194.635 146.223 194.412C145.57 194.183 145.038 193.774 144.627 193.184C144.216 192.628 144.012 192.001 144.013 191.302V43.1434L78.5467 69.9438V285.001L239.758 232.342ZM230.511 174.363C231.022 174.224 231.526 174.237 232.025 174.404C232.521 174.568 232.916 174.855 233.211 175.263C233.533 175.705 233.697 176.183 233.702 176.695L234.275 226.818C234.282 227.365 234.118 227.856 233.784 228.291C233.478 228.73 233.069 229.03 232.557 229.191L87.221 274.813C86.7186 274.977 86.2139 274.977 85.7071 274.813C85.2073 274.643 84.7982 274.343 84.4796 273.913C84.1815 273.484 84.0315 273.006 84.0295 272.481V75.1402C84.0304 74.6412 84.1668 74.1775 84.4387 73.749C84.7366 73.3397 85.1185 73.0397 85.5843 72.8488L134.439 53.4953C134.953 53.2919 135.471 53.2646 135.994 53.4135C136.519 53.568 136.942 53.868 137.262 54.3136C137.613 54.75 137.791 55.241 137.794 55.7866V202.8L230.511 174.363Z" fill="white"/>
<path d="M241.845 235.656C241.884 236.227 242.115 236.691 242.54 237.047L272.328 263.07C272.759 263.459 273.25 263.636 273.801 263.602C274.372 263.564 274.836 263.332 275.192 262.906C275.581 262.476 275.758 261.971 275.724 261.392C275.685 260.848 275.453 260.385 275.028 260.001L245.241 233.978C244.81 233.617 244.305 233.453 243.727 233.487C243.182 233.525 242.718 233.757 242.336 234.183C241.973 234.613 241.81 235.104 241.845 235.656Z" fill="white"/>
<path fill-rule="evenodd" clip-rule="evenodd" d="M243.277 158.733C243.957 158.961 244.503 159.357 244.913 159.919C245.042 160.112 245.151 160.302 245.241 160.492C246.604 161.994 251.855 167.586 260.994 177.268C266.313 182.887 271.605 188.465 276.869 194.003C277.458 194.625 277.759 195.361 277.769 196.212L278.588 263.152C278.6 263.874 278.395 264.528 277.974 265.116C277.548 265.701 276.989 266.096 276.296 266.302L121.836 314.829C121.015 315.102 120.211 315.048 119.422 314.666L73.8822 292.489H73.8413C73.8338 292.485 73.8264 292.48 73.819 292.472C73.8128 292.465 73.8065 292.457 73.8004 292.448C73.6814 292.401 73.5587 292.333 73.4321 292.243L73.1866 292.08C72.9441 291.879 72.7258 291.634 72.5319 291.343L72.3683 291.057C72.1233 290.601 72.0005 290.096 72 289.543V67.7343C71.9979 67.0747 72.1752 66.461 72.5319 65.893C72.9171 65.3534 73.4081 64.9579 74.0049 64.7065L145.813 35.3284C146.059 35.2134 146.304 35.1316 146.55 35.0829C146.645 35.0692 146.727 35.0556 146.796 35.0419C146.876 35.0302 146.944 35.0166 147 35.001H147.286C147.332 35.0004 147.379 35.0001 147.425 35C147.488 34.9999 147.55 35.0002 147.614 35.001C147.741 35.024 147.864 35.0513 147.982 35.0829C148.117 35.108 148.24 35.1353 148.35 35.1647L149.169 35.5739C149.389 35.7371 149.594 35.928 149.782 36.1467L184.111 76.6541L184.03 76.5723C184.96 78.1299 185.192 96.0104 184.725 130.214C184.589 138.84 184.466 147.46 184.357 156.073C184.223 162.893 184.1 169.698 183.989 176.49L241.272 158.692C241.953 158.495 242.621 158.509 243.277 158.733Z" fill="white"/>
<path fill-rule="evenodd" clip-rule="evenodd" d="M232.025 174.404C231.526 174.237 231.022 174.224 230.511 174.363L137.794 202.8V55.7866C137.791 55.241 137.613 54.75 137.262 54.3136C136.942 53.868 136.519 53.568 135.994 53.4135C135.471 53.2646 134.952 53.2919 134.439 53.4953L85.5843 72.8488C85.1185 73.0397 84.7366 73.3397 84.4387 73.749C84.1668 74.1774 84.0304 74.6412 84.0295 75.1402V272.481C84.0315 273.006 84.1815 273.484 84.4796 273.913C84.7982 274.343 85.2073 274.643 85.7071 274.813C86.2139 274.977 86.7186 274.977 87.221 274.813L232.557 229.191C233.069 229.03 233.478 228.73 233.784 228.291C234.118 227.856 234.282 227.365 234.275 226.818L233.702 176.695C233.697 176.183 233.533 175.705 233.211 175.263C232.916 174.855 232.521 174.568 232.025 174.404ZM228.833 180.05L229.324 225.058L88.9395 269.126V76.8177L132.884 59.3873V206.155C132.886 206.68 133.036 207.158 133.334 207.587C133.655 208.017 134.065 208.317 134.561 208.487C135.057 208.656 135.548 208.656 136.034 208.487L228.833 180.05Z" fill="black"/>
<path fill-rule="evenodd" clip-rule="evenodd" d="M244.913 159.919C244.503 159.357 243.957 158.961 243.277 158.733C242.621 158.509 241.953 158.495 241.272 158.692L183.989 176.49C184.1 169.698 184.223 162.893 184.357 156.073C184.466 147.46 184.589 138.84 184.725 130.214C185.192 96.0104 184.96 78.1299 184.03 76.5723L184.111 76.6541L149.782 36.1467C149.594 35.928 149.389 35.7371 149.169 35.5739L148.35 35.1647C148.24 35.1353 148.117 35.108 147.982 35.0829C147.864 35.0513 147.741 35.024 147.614 35.001C147.55 35.0002 147.488 34.9999 147.425 35C147.379 35.0001 147.332 35.0004 147.286 35.001H147C146.944 35.0166 146.876 35.0302 146.796 35.042C146.727 35.0556 146.645 35.0692 146.55 35.0829C146.304 35.1316 146.059 35.2134 145.813 35.3284L74.0049 64.7065C73.4081 64.9579 72.9171 65.3534 72.5319 65.893C72.1752 66.461 71.9979 67.0747 72 67.7343V289.543C72.0005 290.096 72.1233 290.601 72.3683 291.057L72.5319 291.343C72.7258 291.634 72.9441 291.879 73.1866 292.08L73.4321 292.243C73.5587 292.333 73.6814 292.401 73.8003 292.448C73.8139 292.468 73.8275 292.482 73.8413 292.489H73.8822L119.422 314.666C120.211 315.048 121.015 315.102 121.836 314.829L276.296 266.302C276.989 266.096 277.548 265.701 277.974 265.116C278.395 264.528 278.6 263.874 278.588 263.152L277.769 196.212C277.759 195.361 277.458 194.625 276.869 194.003C271.605 188.465 266.313 182.887 260.994 177.268C251.855 167.586 246.604 161.994 245.241 160.492C245.151 160.302 245.042 160.112 244.913 159.919ZM239.021 166.261L239.758 232.342L78.5467 285.001V69.9438L144.013 43.1434V191.302C144.012 192.001 144.216 192.628 144.627 193.184C145.038 193.774 145.57 194.183 146.223 194.412C146.906 194.635 147.574 194.635 148.228 194.412L181.288 184.142C181.361 184.139 181.429 184.125 181.493 184.101L181.575 184.06L239.021 166.261ZM242.54 237.047C242.115 236.691 241.884 236.227 241.845 235.656C241.81 235.104 241.973 234.613 242.336 234.183C242.718 233.757 243.182 233.525 243.727 233.487C244.305 233.453 244.81 233.617 245.241 233.978L275.028 260.001C275.453 260.385 275.685 260.848 275.724 261.392C275.758 261.971 275.581 262.476 275.192 262.906C274.836 263.332 274.372 263.564 273.801 263.602C273.25 263.636 272.759 263.459 272.328 263.07L242.54 237.047Z" fill="black"/>
</svg>
